<?xml version="1.0" standalone="no"?><!DOCTYPE svg PUBLIC "-//W3C//DTD SVG 1.1//EN" "http://www.w3.org/Graphics/SVG/1.1/DTD/svg11.dtd"><svg t="1605523504102" class="icon" viewBox="0 0 1075 1024" version="1.1" xmlns="http://www.w3.org/2000/svg" p-id="8667" xmlns:xlink="http://www.w3.org/1999/xlink" width="209.9609375" height="200"><defs><style type="text/css"></style></defs><path d="M1067.6736 966.912a40.832 40.832 0 1 1-81.7152 0v-22.0672c0-102.144-208.0512-246.7584-446.7456-246.7584-189.7728 0-449.9712 121.4976-449.9712 242.4576v26.368a40.832 40.832 0 1 1-81.7152 0v-51.0976c0-61.2864 90.8544-218.2656 338.688-276.3264-89.2416-61.2864-148.3776-163.968-148.3776-280.6272C197.8368 171.264 349.952 19.0976 537.6 19.0976c187.6224 0 339.7632 152.1408 339.7632 339.7632 0 114.5088-56.9856 215.5776-144.0768 277.4016 250.5216 55.9104 334.3872 220.9536 334.3872 279.552v51.072zM795.648 358.2976c0-142.464-115.584-258.048-258.048-258.048s-258.048 115.584-258.048 258.048 115.584 258.048 258.048 258.048 258.048-115.584 258.048-258.048z" fill="#07c160" p-id="8668"></path></svg>