<?xml version="1.0" standalone="no"?><!DOCTYPE svg PUBLIC "-//W3C//DTD SVG 1.1//EN" "http://www.w3.org/Graphics/SVG/1.1/DTD/svg11.dtd"><svg t="1605523616624" class="icon" viewBox="0 0 1095 1024" version="1.1" xmlns="http://www.w3.org/2000/svg" p-id="11264" xmlns:xlink="http://www.w3.org/1999/xlink" width="213.8671875" height="200"><defs><style type="text/css"></style></defs><path d="M941.527805 751.784345L387.447784 751.784345a69.584731 69.584731 0 0 1-69.39917201-58.080055l-64.94574899-442.930011a66.059105 66.059105 0 0 1 15.58698-52.698836 71.254765 71.254765 0 0 1 53.812192-24.308266l683.600401 0a70.512528 70.512528 0 0 1 53.626633 24.308266 66.059105 66.059105 0 0 1 15.58698 52.698836l-64.574631 442.744451a69.399172 69.399172 0 0 1-69.213613 58.265615zM322.502035 210.507915a34.328467 34.328467 0 0 0-25.79274 11.504675 28.947248 28.947248 0 0 0-6.865694 23.009352l64.574631 442.93001a32.287315 32.287315 0 0 0 33.029552 26.720537l554.45114 0a32.101756 32.101756 0 0 0 32.472874-26.16385899l64.574631-442.93001001a27.648333 27.648333 0 0 0-6.865693-23.009352 33.77179 33.77179 0 0 0-25.607181-11.504675zM972.330646 1023.999814a122.654686 122.654686 0 1 1 122.654687-122.654686 122.840246 122.840246 0 0 1-122.654687 122.654686z m0-208.011957a85.54283 85.54283 0 1 0 85.54283 85.357271 85.54283 85.54283 0 0 0-85.54283-85.357271zM347.18142 1023.999814a122.654686 122.654686 0 1 1 122.46912699-122.654686 122.840246 122.840246 0 0 1-122.46912699 122.654686z m0-208.011957a85.54283 85.54283 0 1 0 85.35727 85.357271 85.54283 85.54283 0 0 0-85.35727-85.357271z" fill="#07c160" p-id="11265"></path><path d="M284.647941 358.398664a18.555928 18.555928 0 0 1-17.442573-15.401421l-37.111856-215.248769a77.563781 77.563781 0 0 0-63.832394-64.57463L16.329217 37.381103a18.815711 18.815711 0 1 1 6.309016-37.111856l151.416375 25.79274001a113.562282 113.562282 0 0 1 94.449675 95.74858999l37.111857 214.506532a18.555928 18.555928 0 0 1-15.215861 21.339318 13.731387 13.731387 0 0 1-5.752338 0.742237z" fill="#07c160" p-id="11266"></path></svg>