<?xml version="1.0" standalone="no"?><!DOCTYPE svg PUBLIC "-//W3C//DTD SVG 1.1//EN" "http://www.w3.org/Graphics/SVG/1.1/DTD/svg11.dtd"><svg class="icon" width="200px" height="200.00px" viewBox="0 0 1024 1024" version="1.1" xmlns="http://www.w3.org/2000/svg"><path fill="#dbdbdb" d="M320 512H192c-70.4 0-128 57.6-128 128v128c0 70.4 57.6 128 128 128h128c70.4 0 128-57.6 128-128V640c0-70.4-57.6-128-128-128z m64 256c0 35.2-28.8 64-64 64H192c-35.2 0-64-28.8-64-64V640c0-35.2 28.8-64 64-64h128c35.2 0 64 28.8 64 64v128zM768 64H640c-70.4 0-128 57.6-128 128v128c0 70.4 57.6 128 128 128h128c70.4 0 128-57.6 128-128V192c0-70.4-57.6-128-128-128z m64 256c0 35.2-28.8 64-64 64H640c-35.2 0-64-28.8-64-64V192c0-35.2 28.8-64 64-64h128c35.2 0 64 28.8 64 64v128z m-64 192H640c-70.4 0-128 57.6-128 128v128c0 70.4 57.6 128 128 128h128c70.4 0 128-57.6 128-128V640c0-70.4-57.6-128-128-128z m64 256c0 35.2-28.8 64-64 64H640c-35.2 0-64-28.8-64-64V640c0-35.2 28.8-64 64-64h128c35.2 0 64 28.8 64 64v128zM320 64H192c-70.4 0-128 57.6-128 128v128c0 70.4 57.6 128 128 128h128c70.4 0 128-57.6 128-128V192c0-70.4-57.6-128-128-128z m64 256c0 35.2-28.8 64-64 64H192c-35.2 0-64-28.8-64-64V192c0-35.2 28.8-64 64-64h128c35.2 0 64 28.8 64 64v128z"  /></svg>